<svg width="88" height="80" viewBox="0 0 88 80" fill="none" xmlns="http://www.w3.org/2000/svg">
<g clip-path="url(#clip0_39_2)">
<mask id="mask0_39_2" style="mask-type:luminance" maskUnits="userSpaceOnUse" x="0" y="0" width="88" height="80">
<path d="M88 0H0V80H88V0Z" fill="white"/>
</mask>
<g mask="url(#mask0_39_2)">
<path d="M47.516 48.084L52.2651 56.4684H59.8676L55.1381 48.084H47.516Z" fill="#2C3579"/>
<path d="M56.7961 23.5317H44.2692L51.2157 35.8867C51.2157 35.8867 51.5538 32.6553 51.8726 29.7817H56.1361C56.7507 29.7817 57.3362 29.8733 57.8922 30.0389C58.767 30.29 59.5475 30.7306 60.1815 31.31C61.2192 32.2503 61.863 33.5511 61.863 34.9878C61.863 35.5497 61.7623 36.0906 61.5801 36.5991C61.3427 37.2613 60.9624 37.8672 60.4712 38.3819C59.4272 39.4905 57.8727 40.1883 56.1361 40.1883H41.0952L31.903 56.4685L39.9357 56.4447L45.3718 46.1161H56.7965C60.2273 46.1161 63.3363 44.8506 65.5801 42.8078C67.8307 40.7678 69.2225 37.9475 69.2225 34.8285C69.2225 28.59 63.6582 23.5317 56.7961 23.5317Z" fill="#7972DA"/>
<path d="M49.4563 38.3814H42.1162L39.2705 33.7194L33.0992 44.6113L30.2954 49.5591L30.2988 49.5609L26.3907 56.4688H18.7796V56.4678H18.7773L18.7827 56.4641L37.355 23.5312H41.1142L49.4563 38.3814Z" fill="#2C3579"/>
</g>
</g>
<defs>
<clipPath id="clip0_39_2">
<rect width="88" height="80" fill="white"/>
</clipPath>
</defs>
</svg>
