<svg width="147" height="50" viewBox="0 0 147 50" fill="none" xmlns="http://www.w3.org/2000/svg">
<path d="M66.1441 33.8256C66.1441 34.9343 66.4501 35.7401 67.0621 36.2428C67.6884 36.7327 68.6343 37.0357 69.901 37.1517C69.901 37.3451 69.8939 37.5385 69.8797 37.7319C69.8655 37.9253 69.8584 38.0542 69.8584 38.1186H58.8651L58.8438 37.4998C58.8438 37.2935 58.8509 37.1517 58.8651 37.0744C59.6903 36.8939 60.3094 36.7327 60.722 36.5909C61.1488 36.4491 61.4974 36.2171 61.7679 35.8948C62.0384 35.5725 62.1734 35.1212 62.1734 34.5411V24.06C62.0029 23.7635 61.6685 23.4992 61.1706 23.2671C60.6723 23.0222 60.1455 22.8224 59.5908 22.6677C59.0498 22.5001 58.7793 22.4227 58.7793 22.4356L58.8438 21.7781L64.6713 20.4631L65.9736 20.3858L66.208 23.5185C66.9911 22.5645 67.9867 21.7781 69.1966 21.1593C70.4207 20.5276 71.7366 20.2117 73.146 20.2117C75.2094 20.2117 76.81 20.7403 77.9489 21.7974C79.0872 22.8546 79.7063 24.4339 79.8058 26.5353C79.8484 27.3603 79.8697 28.2048 79.8697 29.0685V33.3809C79.8697 34.3219 79.9336 35.0052 80.0621 35.4307C80.1899 35.8561 80.3894 36.1526 80.6599 36.3202C80.9441 36.4749 81.414 36.6425 82.0687 36.823L82.9649 37.0744C82.9791 37.1517 82.9862 37.2935 82.9862 37.4998L82.9649 38.1186H72.441C72.441 38.0413 72.4339 37.9123 72.4197 37.7319C72.4055 37.5385 72.3984 37.3451 72.3984 37.1517C72.4984 37.1131 72.7831 37.0357 73.2525 36.9197C74.0066 36.7263 74.5903 36.52 75.0029 36.3009C75.4296 36.0817 75.6859 35.7272 75.7712 35.2373C75.8422 34.8634 75.8783 34.3671 75.8783 33.7483V29.4359C75.8783 27.7213 75.8067 26.3999 75.6646 25.4716C75.5368 24.5434 75.181 23.7828 74.5974 23.1898C74.0279 22.5967 73.1028 22.3003 71.8224 22.3003C70.812 22.3003 69.8371 22.5645 68.8977 23.0931C67.9725 23.6216 67.055 24.3243 66.1441 25.2009V33.8256ZM97.4266 26.3418C97.4266 25.375 97.3272 24.5563 97.1277 23.8859C96.943 23.2156 96.5588 22.6741 95.9752 22.2616C95.4058 21.849 94.5877 21.6428 93.5205 21.6428C93.1505 21.6428 92.6953 21.7137 92.1543 21.8555C91.6133 21.9973 91.1368 22.2036 90.7242 22.4743C90.3258 22.7321 90.1264 23.0351 90.1264 23.3832C90.1264 23.525 90.1548 23.6668 90.2116 23.8086C90.2684 23.9375 90.3613 24.1051 90.4892 24.3114C90.6171 24.5048 90.71 24.6723 90.7668 24.8142C90.8237 24.956 90.8521 25.1042 90.8521 25.2589C90.8521 25.7746 90.6674 26.2065 90.2969 26.5546C89.9411 26.8898 89.4788 27.0573 88.9094 27.0573C88.1979 27.0573 87.629 26.8189 87.2017 26.3418C86.7891 25.8649 86.5831 25.2911 86.5831 24.6208C86.5831 23.6152 87.017 22.7837 87.8847 22.1262C88.7531 21.4687 89.799 20.9853 91.0231 20.6758C92.2609 20.3664 93.4139 20.2117 94.4812 20.2117C96.4878 20.2117 97.9818 20.4825 98.9639 21.024C99.9601 21.5525 100.615 22.3325 100.928 23.3638C101.255 24.3823 101.419 25.8133 101.419 27.6568L101.376 28.6237C101.362 28.9073 101.34 29.3779 101.312 30.0354C101.298 30.6929 101.291 31.2988 101.291 31.8532C101.291 34.7538 101.625 36.2042 102.294 36.2042C102.778 36.2042 103.404 35.7594 104.172 34.8699L105.069 35.7401C104.443 36.6683 103.824 37.3645 103.212 37.8286C102.6 38.2798 101.796 38.5054 100.799 38.5054C99.8601 38.5054 99.0846 38.2411 98.4726 37.7125C97.8753 37.171 97.5479 36.4749 97.4911 35.624C96.5802 36.5265 95.5555 37.2355 94.4172 37.7512C93.2926 38.254 92.0975 38.5054 90.8308 38.5054C89.9482 38.5054 89.1302 38.3636 88.376 38.08C87.6361 37.7834 87.0383 37.3451 86.5831 36.765C86.1415 36.1849 85.9213 35.4887 85.9213 34.6765C85.9213 33.4517 86.4404 32.4333 87.4793 31.6211C88.5181 30.8089 89.7138 30.1901 91.0657 29.7647C92.4177 29.3392 94.0686 28.9138 96.0178 28.4884C96.1889 28.4626 96.6583 28.3595 97.4266 28.179V26.3418ZM97.4266 29.3199C97.2135 29.3844 96.943 29.4617 96.6157 29.5519C95.3916 29.9129 94.3456 30.261 93.4779 30.5962C92.6095 30.9185 91.8341 31.3568 91.151 31.9111C90.4679 32.4655 90.1264 33.1165 90.1264 33.8643C90.1264 34.6249 90.3542 35.2244 90.8095 35.6627C91.2789 36.101 91.9335 36.3202 92.7735 36.3202C93.6128 36.3202 94.4243 36.1333 95.2069 35.7594C95.9894 35.3726 96.7293 34.8699 97.4266 34.251V29.3199ZM114.279 33.8256C114.279 34.9343 114.585 35.7401 115.197 36.2428C115.823 36.7327 116.77 37.0357 118.036 37.1517C118.036 37.3451 118.029 37.5385 118.015 37.7319C118.001 37.9253 117.994 38.0542 117.994 38.1186H107L106.979 37.4998C106.979 37.2935 106.986 37.1517 107 37.0744C107.826 36.8939 108.445 36.7327 108.858 36.5909C109.284 36.4491 109.633 36.2171 109.904 35.8948C110.174 35.5725 110.309 35.1212 110.309 34.5411V24.06C110.138 23.7635 109.804 23.4992 109.306 23.2671C108.807 23.0222 108.281 22.8224 107.726 22.6677C107.185 22.5001 106.915 22.4227 106.915 22.4356L106.979 21.7781L112.806 20.4631L114.109 20.3858L114.344 23.5185C115.126 22.5645 116.122 21.7781 117.332 21.1593C118.556 20.5276 119.872 20.2117 121.281 20.2117C123.345 20.2117 124.946 20.7403 126.084 21.7974C127.222 22.8546 127.841 24.4339 127.941 26.5353C127.984 27.3603 128.005 28.2048 128.005 29.0685V33.3809C128.005 34.3219 128.069 35.0052 128.197 35.4307C128.326 35.8561 128.525 36.1526 128.795 36.3202C129.08 36.4749 129.549 36.6425 130.204 36.823L131.101 37.0744C131.115 37.1517 131.122 37.2935 131.122 37.4998L131.101 38.1186H120.577C120.577 38.0413 120.57 37.9123 120.555 37.7319C120.541 37.5385 120.534 37.3451 120.534 37.1517C120.634 37.1131 120.918 37.0357 121.388 36.9197C122.142 36.7263 122.725 36.52 123.138 36.3009C123.565 36.0817 123.821 35.7272 123.907 35.2373C123.978 34.8634 124.013 34.3671 124.013 33.7483V29.4359C124.013 27.7213 123.942 26.3999 123.8 25.4716C123.672 24.5434 123.316 23.7828 122.732 23.1898C122.164 22.5967 121.238 22.3003 119.958 22.3003C118.947 22.3003 117.972 22.5645 117.033 23.0931C116.108 23.6216 115.19 24.3243 114.279 25.2009V33.8256ZM139.948 32.0465C139.948 33.3615 139.998 34.3026 140.098 34.8699C140.197 35.4242 140.439 35.8303 140.823 36.0881C141.207 36.3331 141.855 36.4556 142.766 36.4556C143.306 36.4556 143.847 36.4105 144.388 36.3202C144.929 36.23 145.384 36.1333 145.754 36.0301L145.925 37.4418C145.199 37.7641 144.467 38.0219 143.726 38.2153C142.986 38.4087 142.097 38.5054 141.058 38.5054C139.678 38.5054 138.624 38.2991 137.899 37.8865C137.173 37.474 136.668 36.8101 136.383 35.8948C136.099 34.9665 135.956 33.6645 135.956 31.9885V22.1842H132.775V21.5074C133.743 21.1593 134.555 20.7532 135.209 20.2891C135.878 19.8121 136.426 19.3222 136.853 18.8194C137.279 18.3166 137.792 17.6527 138.39 16.8276C138.646 16.4538 138.845 16.2088 138.987 16.0928C139.13 15.9639 139.272 15.8994 139.415 15.8994C139.557 15.8994 139.67 15.9639 139.756 16.0928C139.856 16.2088 139.905 16.3958 139.905 16.6536V20.7339H145.263V22.1842H139.948V32.0465Z" fill="url(#paint0_linear_43_2)"/>
<path d="M9.84156 31.5806C12.5542 31.5806 15.1734 31.7889 17.6912 32.2125L17.4808 32.5656L13.9769 38.4056L9.07765 46.5759H0.136719L5.03592 38.4056L8.53982 32.5656L9.13224 31.5806H9.84156Z" fill="url(#paint1_linear_43_2)"/>
<path d="M52.461 46.572H43.524L38.6131 38.4018L36.8592 35.4818L35.1014 32.5654L32.381 28.0389L26.2852 17.8984L21.1794 26.3971C16.5804 26.5877 12.9557 27.7529 10.9368 28.5756L26.3047 2.97021L47.3592 38.0699L52.461 46.572Z" fill="url(#paint2_linear_43_2)"/>
<path d="M43.524 46.5686C43.524 46.5686 33.71 30.3975 9.84155 30.3975C9.84155 30.3975 33.1878 17.5207 52.4611 46.5686H43.524Z" fill="url(#paint3_linear_43_2)"/>
<defs>
<linearGradient id="paint0_linear_43_2" x1="144.455" y1="26.4998" x2="60.748" y2="25.4202" gradientUnits="userSpaceOnUse">
<stop stop-color="#2C3579"/>
<stop offset="1" stop-color="#7972DA"/>
</linearGradient>
<linearGradient id="paint1_linear_43_2" x1="8.91382" y1="46.342" x2="8.91382" y2="32.0421" gradientUnits="userSpaceOnUse">
<stop stop-color="#2C3579"/>
<stop offset="0.8216" stop-color="#2C3579"/>
</linearGradient>
<linearGradient id="paint2_linear_43_2" x1="31.6979" y1="45.9035" x2="31.6979" y2="4.31513" gradientUnits="userSpaceOnUse">
<stop offset="0.1784" stop-color="#2C3579"/>
<stop offset="1" stop-color="#2C3579"/>
</linearGradient>
<linearGradient id="paint3_linear_43_2" x1="9.84084" y1="37.0621" x2="52.4614" y2="37.0621" gradientUnits="userSpaceOnUse">
<stop stop-color="#7871D8"/>
<stop offset="0.8216" stop-color="#7770D7"/>
</linearGradient>
</defs>
</svg>
